<?xml version='1.0' encoding='utf-8'?>
<!DOCTYPE svg PUBLIC '-//W3C//DTD SVG 1.1//EN' 'http://www.w3.org/Graphics/SVG/1.1/DTD/svg11.dtd'>
<svg version="1.1" xmlns="http://www.w3.org/2000/svg" viewBox="0 0 512 512" xmlns:xlink="http://www.w3.org/1999/xlink" enable-background="new 0 0 512 512">
  <g>
    <path d="m494,99.2l-103.5-86.1c-1.5-1.1-4.2-2.1-6.3-2.1h-257.5c-2.1,0-4.6,0.7-6.3,2.1l-102.1,85.9c-4.8,3.3-7.3,7.7-7.3,13.1v388.9h490v-389.4c0-4.9-3.1-8.9-7-12.4zm-107.7,51.5c0,19.8-16.7,36.5-36.5,36.5-19.8,0-36.5-16.7-36.5-36.5v-31.3h73v31.3zm-93.8,0c0,19.8-16.7,36.5-36.5,36.5s-36.5-16.7-36.5-36.5v-31.3h73v31.3zm-93.8,0c0,19.8-16.7,36.5-36.5,36.5-19.8,0-36.5-16.7-36.5-36.5v-31.3h73v31.3zm74-118.8l16.4,66.7h-66.4l15.7-66.7h34.3zm55.2,0l48.2,66.7h-65.1l-9.9-40.1-6.4-26.6h33.2zm-127.3,66.7h-64.8l48.2-66.7h32.3l-15.7,66.7zm260.6,0h-59.4l-48.2-66.7h27.6l80,66.7zm-330.3-66.7h27.6l-47.9,66.7h-59.8l80.1-66.7zm-99,87.5h73v31.3c0,19.8-16.7,36.5-36.5,36.5-19.8,0-36.5-16.7-36.5-36.5v-31.3zm-0,360.7v-285.4c10,8.3 22.7,13.4 36.5,13.4 19.2,0 36.5-9.9 46.9-24.7 10.4,14.9 27.7,24.7 46.9,24.7s36.5-9.9 46.9-24.7c10.4,14.9 27.7,24.7 46.9,24.7s36.5-9.9 46.9-24.7c10.4,14.9 27.7,24.7 46.9,24.7s36.5-9.9 46.9-24.7c10.4,14.9 27.7,24.7 46.9,24.7 13.8,0 26.5-5.1 36.5-13.4v285.5h-448.2zm448.2-329.5c0,19.8-16.7,36.5-36.5,36.5-19.8,0-36.5-16.7-36.5-36.5v-31.3h73v31.3z"/>
    <g>
      <rect width="469.1" x="22.5" y="335.2" height="20.9"/>
    </g>
  </g>
</svg>
